<svg xmlns="http://www.w3.org/2000/svg" width="61.75" height="58.962" viewBox="0 0 61.75 58.962">
  <g id="Grupo_887" data-name="Grupo 887" transform="translate(-698.251 -942.019)">
    <path id="Trazado_1729" data-name="Trazado 1729" d="M0,0H53.79V58.962H0Z" transform="translate(703.105 942.019)" fill="#fff" opacity="0.51"/>
    <g id="Grupo_886" data-name="Grupo 886" transform="translate(-22.749 79)">
      <g id="noun_commitment_2152483" transform="translate(721 876)">
        <path id="Trazado_1661" data-name="Trazado 1661" d="M63.682,35.392,56.317,16.947a.936.936,0,0,0-1.206-.526l-7.863,3.032a.936.936,0,0,0-.534,1.215l.48,1.223-3.576.962-5.262-1.769a10.431,10.431,0,0,0-7.223.223,3.889,3.889,0,0,0-1.8-.739,5.2,5.2,0,0,0-3.3.663l-4.5,2.542-1.883-.926.7-1.392a.936.936,0,0,0-.423-1.259l-7.556-3.721a.935.935,0,0,0-1.248.415L2.1,34.6a.936.936,0,0,0,.41,1.258l7.607,3.87a.935.935,0,0,0,.424.1.934.934,0,0,0,.836-.516l.576-1.148,2.555,1.591a2.7,2.7,0,0,0,1.035,2.885l.657.474a2.725,2.725,0,0,0,1.6.518h.01a3.04,3.04,0,0,0,.053.479,2.847,2.847,0,0,0,2.8,2.273c.069,0,.136-.021.2-.026,0,.063,0,.125.007.187a2.8,2.8,0,0,0,2.8,2.439,3,3,0,0,0,.915-.163,3.049,3.049,0,0,0,2.794,1.887,2.511,2.511,0,0,0,2.022-.958l.494-.646a8.342,8.342,0,0,0,4.8,2.13,3.784,3.784,0,0,0,3.483-2.263,3.932,3.932,0,0,0,.807.095H39c1.518-.005,2.855-.91,3.984-2.67a4.054,4.054,0,0,0,.9.116c.076,0,.153,0,.23-.007,1.52-.1,2.773-1.1,3.737-2.966a3.478,3.478,0,0,0,.5.069c.041,0,.082,0,.123,0a2.879,2.879,0,0,0,2.272-1.092,4.515,4.515,0,0,0,1.241-3.293,3.3,3.3,0,0,0-.147-.709l1.687-.508.489,1.244a.936.936,0,0,0,1.219.526l7.927-3.176A.935.935,0,0,0,63.682,35.392ZM10.128,37.638l-5.934-3.02,8.165-16.056,5.883,2.9-.7,1.4v0Zm6.512,3.491a.838.838,0,0,1-.341-.552.828.828,0,0,1,.153-.624.87.87,0,0,1,1.208-.186l.657.474a.84.84,0,0,1,.341.553.828.828,0,0,1-.153.624A.87.87,0,0,1,17.3,41.6Zm3.492,3.236a1,1,0,0,1-.436-.646,1.349,1.349,0,0,1,.2-1.01l.53-.816a1.22,1.22,0,0,1,1.637-.476,1,1,0,0,1,.437.645,1.349,1.349,0,0,1-.2,1.009l-.531.817A1.221,1.221,0,0,1,20.131,44.365ZM23.1,46.931a.948.948,0,0,1-.366-.636,1.173,1.173,0,0,1,.243-.875l1.778-2.326a1.107,1.107,0,0,1,1.523-.294.946.946,0,0,1,.365.636,1.176,1.176,0,0,1-.243.876l-.124.163,0,0-1.412,1.846h0l-.24.314A1.108,1.108,0,0,1,23.1,46.931Zm3.6,1.67a1.1,1.1,0,0,1-.446-.706.582.582,0,0,1,.1-.437L27.7,45.682l.054-.071a.646.646,0,0,1,.528-.228,1.187,1.187,0,0,1,.7.246,1.1,1.1,0,0,1,.446.706.582.582,0,0,1-.1.438l-1.412,1.846A.906.906,0,0,1,26.693,48.6Zm22.613-7.274a1.011,1.011,0,0,1-.884.416c-1.923-.073-5.216-3.728-6.841-6.016a.935.935,0,1,0-1.526,1.083c.383.54,3.18,4.388,6.048,6.044-.619,1.137-1.327,1.739-2.11,1.788-2.194.157-5.135-3.728-5.983-5.1a.936.936,0,0,0-1.591.984,17.452,17.452,0,0,0,4.806,5.136A2.93,2.93,0,0,1,38.994,47.2h-.009c-1.874,0-3.884-2.749-4.5-3.81a.935.935,0,0,0-1.619.938,12.6,12.6,0,0,0,3.571,3.912,2.065,2.065,0,0,1-1.353,1.093c-1.32.257-3.061-.9-4.073-1.738a2.459,2.459,0,0,0,.273-1.514,2.978,2.978,0,0,0-1.175-1.947,3.035,3.035,0,0,0-1.6-.6,2.977,2.977,0,0,0-.013-.351A2.8,2.8,0,0,0,27.4,41.3a2.922,2.922,0,0,0-3.233-.143,2.833,2.833,0,0,0-1.1-1.321,2.956,2.956,0,0,0-2.844-.154,2.7,2.7,0,0,0-.815-.962l-.657-.474a2.738,2.738,0,0,0-3.164-.019L12.8,36.49l6-11.969,2.339,1.151a.936.936,0,0,0,.873-.025l4.932-2.785a3.341,3.341,0,0,1,2.105-.442h0a9.2,9.2,0,0,0-3.33,4.161c-1.2,3.095.249,4.758,1.19,5.21a3.572,3.572,0,0,0,2.942.18,5.244,5.244,0,0,0,2.622-3.12,1.426,1.426,0,0,1,.76-.8,1.456,1.456,0,0,1,1.239.023l5.689,2.8a22.277,22.277,0,0,1,6.136,4.45A38.189,38.189,0,0,0,49.324,38.1a1.964,1.964,0,0,1,.8,1.3A2.768,2.768,0,0,1,49.307,41.327Zm1.448-4.434c-.082-.077-.15-.16-.239-.233a36.379,36.379,0,0,1-2.877-2.642A24.157,24.157,0,0,0,40.989,29.2L35.3,26.4a3.319,3.319,0,0,0-2.827-.053,3.284,3.284,0,0,0-1.746,1.84,3.613,3.613,0,0,1-1.576,2.051,1.742,1.742,0,0,1-1.417-.125c-.116-.064-1.106-.689-.268-2.854a7.45,7.45,0,0,1,3.215-3.662,8.571,8.571,0,0,1,7.078-.735l5.53,1.859a.939.939,0,0,0,.541.017l4.052-1.091,4.958,12.621Zm4.658.8L48.8,20.86,54.922,18.5,61.6,35.218Z" transform="translate(-2 -16.358)"/>
        <path id="Trazado_1662" data-name="Trazado 1662" d="M9.44,33.488a.936.936,0,0,0-1.02,1.525.982.982,0,0,0,.664.271.943.943,0,0,0,.936-.936.952.952,0,0,0-.281-.664A.92.92,0,0,0,9.44,33.488Z" transform="translate(-2.396 -17.457)"/>
        <path id="Trazado_1663" data-name="Trazado 1663" d="M61.295,35.284a.933.933,0,0,0,.655-1.6.919.919,0,0,0-1.01-.2.869.869,0,0,0-.309.2.949.949,0,0,0,0,1.328A.983.983,0,0,0,61.295,35.284Z" transform="translate(-5.759 -17.457)"/>
      </g>
    </g>
  </g>
</svg>
