<svg xmlns="http://www.w3.org/2000/svg" viewBox="0 0 503.98 179.73"><defs><style>.cls-1{fill:#fff;}.cls-2{fill:#ed2a2a;}</style></defs><title>Recurso 3</title><g id="Capa_2" data-name="Capa 2"><g id="Capa_1-2" data-name="Capa 1"><path class="cls-1" d="M446.71,179.73H30.22c-19.32,0-32.68-15.3-29.84-34.17L17.15,34.17C20,15.3,38,0,57.27,0h416.5c19.31,0,32.67,15.3,29.83,34.17L486.83,145.56C484,164.43,466,179.73,446.71,179.73Z"/><path class="cls-2" d="M167.27,68.16c.49-3,.26-5.17-.69-6.55s-2.81-1.87-5.85-1.87H85.67L82.34,79.86H156A13.79,13.79,0,0,0,163.49,78c1.6-1,2.67-3.17,3.21-6.41Z"/><path class="cls-2" d="M469.92,13.67h-409c-11,0-21.48,9-23.31,20L23.13,121.16h129c3,0,5.22-.63,6.48-1.86s2.37-3.61,2.87-6.64l.94-5.67c.73-4.38-.82-5.58-1.33-6-1.69-1.29-4.14-2-7.29-2H79.16L77,112.17H54L66,39.41H170.34c8.91,0,15,2.2,18.13,6.55s3.93,10.37,2.63,18.19l-.94,5.69a33.13,33.13,0,0,1-3.52,11,24.55,24.55,0,0,1-5.54,7,20.82,20.82,0,0,1-2,1.49,13.77,13.77,0,0,1,2.24,1.81,15.17,15.17,0,0,1,3.73,6.63c.82,2.79.87,6.26.15,10.61l-1.4,8.5c-1.3,7.81-4.21,13.91-8.66,18.15s-11.38,6.53-20.29,6.53H19.76l-1,6.18c-1.83,11,5.64,20,16.69,20h409c11,0,21.48-9,23.31-20l1-6.18H353.57c-10.85,0-18.51-2.91-22.78-8.64s-5.39-14.26-3.51-25.58l5.57-33.64c1.87-11.32,5.9-19.92,12-25.58s14.79-8.64,25.64-8.64h90.29l-11.6,21.75H370.41c-4.46,0-7.84,1.08-10.05,3.22s-3.94,6-4.76,11l-5,30.24c-.81,4.91-.42,8.58,1.17,10.89s4.51,3.28,9,3.28H472.36l14.25-86.07C488.44,22.62,481,13.67,469.92,13.67ZM325.39,59.74H241.86a20,20,0,0,0-18.93,13.55l-2.38,7h78.71c8.9,0,15,2.22,18.18,6.6s4,10.4,2.72,18.2l-2,11.75c-1.29,7.81-4.23,13.92-8.74,18.15s-11.45,6.51-20.34,6.51H184.34l7.36-20.33h94.69c3.06,0,5.27-.64,6.58-1.89s2.4-3.59,2.9-6.61l.77-4.68c.48-2.87.23-5.08-.72-6.56-.84-1.28-2.79-1.94-5.8-1.94h-70c-8.91,0-15-2.23-18.12-6.63s-3.92-10.42-2.62-18.23c0,0,4.24-35.21,39.68-35.21h94.67Z"/></g></g></svg>